<svg xmlns="http://www.w3.org/2000/svg" xmlns:xlink="http://www.w3.org/1999/xlink" width="22" height="22" viewBox="0 0 22 22">
    <defs>
        <path id="b" d="M12.02 10.476l3.367-3.367a1.429 1.429 0 1 0-2.02-2.02L10 8.456 6.633 5.089a1.429 1.429 0 1 0-2.02 2.02l3.367 3.367-3.367 3.367a1.429 1.429 0 0 0 2.02 2.02L10 12.497l3.367 3.368a1.429 1.429 0 1 0 2.02-2.02l-3.367-3.368zM10 20C4.477 20 0 15.523 0 10S4.477 0 10 0s10 4.477 10 10-4.477 10-10 10z"/>
        <filter id="a" y="-5%" filterUnits="objectBoundingBox">
            <feOffset dy="1" in="SourceAlpha" result="shadowOffsetOuter1"/>
            <feGaussianBlur in="shadowOffsetOuter1" result="shadowBlurOuter1" stdDeviation=".5"/>
            <feColorMatrix in="shadowBlurOuter1" values="0 0 0 0 0 0 0 0 0 0 0 0 0 0 0 0 0 0 0.140879755 0"/>
        </filter>
    </defs>
    <g fill="none" fill-rule="evenodd" opacity=".704" transform="translate(1)">
        <use fill="#000" filter="url(#a)" xlink:href="#b"/>
        <use fill="#FFF" xlink:href="#b"/>
    </g>
</svg>
