<svg xmlns="http://www.w3.org/2000/svg" width="43" height="31" viewBox="0 0 43 31">
    <path fill="#FFF" fill-rule="nonzero" d="M42.337 6.086c-4.068 5.847-11.78 9.044-18.403 10.832-4.866 1.302-10.193 2.095-15.38 1.656 1.563-.626 3.008-1.542 4.25-2.546.63-.555-.043-2.461.395-2.829-2.851 2.604-5.922 3.863-9.446 4.56a27.153 27.153 0 0 1-2.125-.61s-.103.311-.18.79c-.236.126-.428.314-.479.633-.025.16-.113 1.4.024.877l.061-.045a.237.237 0 0 0 .028.168l.37.059c.653.321 1.368.598 2.083.875a77.257 77.257 0 0 1 3.383 1.9c1.715 1.144 3.36 2.387 4.605 4.111-.222-.308.629-1.919.387-2.448-.482-1.058-1.218-1.884-2.138-2.575 4.752.098 9.76-1.073 13.93-2.43 6.673-2.108 14.48-5.562 18.478-11.64.217-.346-.052-1.044.157-1.338z"/>
</svg>
